<svg width="61" height="51" viewBox="0 0 61 51" fill="none" xmlns="http://www.w3.org/2000/svg">
<path d="M24.1976 32.5117C23.7042 32.5117 23.3041 32.9236 23.3041 33.4316L23.3043 49.6275C23.3043 50.1356 23.7044 50.5475 24.1979 50.5475C24.6914 50.5475 25.0914 50.1356 25.0914 49.6275L25.0912 33.4316C25.0912 32.9236 24.6911 32.5117 24.1976 32.5117Z" fill="#F7F7F7"/>
<path d="M4.67901 37.9429H4.6665C4.17302 37.9429 3.77295 38.3548 3.77295 38.8628C3.77295 39.3708 4.17302 39.7827 4.6665 39.7827H4.67901C5.17249 39.7827 5.57257 39.3708 5.57257 38.8628C5.57257 38.3548 5.17261 37.9429 4.67901 37.9429Z" fill="#F7F7F7"/>
<path d="M47.873 37.9429H47.8605C47.367 37.9429 46.9669 38.3548 46.9669 38.8628C46.9669 39.3708 47.367 39.7827 47.8605 39.7827H47.873C48.3665 39.7827 48.7665 39.3708 48.7665 38.8628C48.7665 38.3548 48.3665 37.9429 47.873 37.9429Z" fill="#F7F7F7"/>
<path d="M58.9868 35.3433L53.3128 12.8186C53.6449 12.6896 53.9502 12.5044 54.2179 12.274H58.2935C59.6193 12.274 60.6979 11.1636 60.6979 9.79864C60.6979 8.43384 59.6193 7.32331 58.2935 7.32331H54.2179C53.6737 6.85464 52.9735 6.57192 52.2102 6.57192C51.687 6.57192 51.1938 6.70525 50.7597 6.93965C50.2451 6.76339 49.7491 6.53071 49.2854 6.241C49.1455 6.15366 48.9965 6.0656 48.8163 5.96416C48.3835 5.72032 47.8404 5.88394 47.6035 6.32955C47.3665 6.77516 47.5256 7.33423 47.9584 7.57819C48.1146 7.66614 48.2415 7.74096 48.358 7.81369C48.6931 8.02307 49.0415 8.20914 49.4 8.3719C49.2181 8.75018 49.106 9.1699 49.0814 9.61355C48.6108 9.4108 48.1545 9.17334 47.7174 8.90018C46.3048 8.0173 44.6845 7.5506 43.0319 7.5506H40.1218V6.27963H43.0319C43.433 6.27963 43.8472 6.30588 44.263 6.35752C44.2995 6.36206 44.3356 6.36427 44.3713 6.36427C44.817 6.36427 45.2025 6.02144 45.2574 5.55449C45.3166 5.05013 44.9672 4.59176 44.4775 4.53092C43.9907 4.47033 43.5044 4.43967 43.032 4.43967H40.1218V3.37366C40.1218 3.37329 40.1218 3.37305 40.1218 3.37268V2.5775C40.1218 1.88903 39.8614 1.24165 39.3885 0.75495C38.9156 0.268127 38.2868 0 37.6182 0H36.4776C35.865 0 35.3037 0.228509 34.8682 0.606045C34.4176 0.214526 33.8537 4.00514e-07 33.2574 0.000123057H32.1169C31.5042 0.000123057 30.943 0.228632 30.5074 0.606045C30.0568 0.214526 29.493 0.000123057 28.8966 0.000123057H27.7561C27.1434 0.000123057 26.5822 0.228632 26.1466 0.606045C25.696 0.214526 25.1322 0.000123057 24.5358 0.000123057H23.3953C22.7266 0.000123057 22.0977 0.268249 21.625 0.755072C21.1521 1.24189 20.8917 1.88927 20.8917 2.57762V4.43954H17.9684C15.7627 4.43954 13.6003 5.06239 11.715 6.24075C11.2518 6.53022 10.7577 6.76511 10.2439 6.94124C9.80909 6.70574 9.31477 6.5718 8.7902 6.5718C8.02686 6.5718 7.32667 6.85452 6.78244 7.32319H2.70652C1.38072 7.32319 0.302141 8.4336 0.302141 9.79852C0.302141 11.1634 1.38072 12.2738 2.70652 12.2738H6.78208C7.04967 12.5043 7.35503 12.6895 7.68719 12.8184L2.01324 35.3433C0.8789 35.4979 0 36.4976 0 37.7071V38.3026C0 41.6615 2.65433 44.3942 5.917 44.3942H11.6629C14.9256 44.3942 17.5799 41.6615 17.5799 38.3026V37.7071C17.5799 36.4977 16.701 35.4979 15.5667 35.3433L9.89272 12.8184C10.4283 12.6104 10.8941 12.2556 11.2443 11.8017C12.2861 11.4974 13.2837 11.0516 14.2101 10.4728C15.3432 9.76466 16.6426 9.39032 17.9681 9.39032H20.9917C20.7162 9.83568 20.4889 10.3129 20.3206 10.8134L19.3719 13.6337C19.0113 14.7059 19.0716 15.8614 19.5414 16.8877L20.2319 18.3954C20.6265 19.257 21.1583 20.0355 21.8126 20.7092L23.3038 22.2442V29.0904C23.3038 29.5984 23.7039 30.0103 24.1973 30.0103C24.6908 30.0103 25.0909 29.5984 25.0909 29.0904V23.8743C25.1525 23.8878 25.215 23.8952 25.2777 23.8952C25.5063 23.8952 25.7351 23.8054 25.9095 23.6257C26.2585 23.2664 26.2585 22.6839 25.9095 22.3248L23.0763 19.4081C22.568 18.8848 22.1549 18.2801 21.8484 17.6107L21.1579 16.1031C20.8882 15.5142 20.8537 14.851 21.0606 14.2359L22.0093 11.4155C22.2688 10.6441 22.7144 9.9446 23.2982 9.39253L29.5602 3.46921C29.6243 3.41401 29.7194 3.41819 29.7788 3.47927C30.2144 3.9277 30.4544 4.52405 30.4544 5.15819C30.4544 5.79232 30.2145 6.38867 29.779 6.83711L26.3065 10.412C25.9575 10.7713 25.9575 11.3538 26.3065 11.7129L26.8662 12.2892C27.8376 13.2892 28.2212 14.7073 27.8923 16.0827C27.7743 16.576 28.0671 17.0744 28.5463 17.1959C29.0258 17.3172 29.5096 17.016 29.6277 16.5225C29.9108 15.3383 29.8294 14.1332 29.4254 13.0435C30.2435 12.7198 30.8941 12.0464 31.2034 11.2016C31.6436 11.4524 32.1493 11.5957 32.6871 11.5957C33.5082 11.5957 34.2801 11.2663 34.8607 10.6686C35.0636 10.4598 35.2338 10.2265 35.3705 9.97576C35.8532 10.3008 36.4293 10.4905 37.048 10.4905C37.4997 10.4905 37.9364 10.3903 38.3348 10.2011V13.6016C38.3348 15.1527 37.8348 16.6885 36.9267 17.9261L35.4476 19.9422C35.3304 20.1019 35.2671 20.2965 35.2671 20.4967L35.2674 49.6276C35.2674 50.1356 35.6675 50.5475 36.161 50.5475C36.6544 50.5475 37.0545 50.1356 37.0545 49.6276L37.0542 20.8052L38.3527 19.0353C39.4936 17.4804 40.1219 15.5507 40.1219 13.6018V9.39044H43.032C44.3575 9.39044 45.6571 9.76479 46.7901 10.473C47.7165 11.0519 48.7148 11.4995 49.7572 11.8037C50.1072 12.2567 50.5726 12.611 51.1075 12.8188L45.4336 35.3435C44.2992 35.4982 43.4203 36.498 43.4203 37.7074V38.3029C43.4203 41.6618 46.0747 44.3945 49.3373 44.3945H55.0832C58.3459 44.3945 61.0002 41.6618 61.0002 38.3029V37.7074C61 36.4976 60.1211 35.4979 58.9868 35.3433ZM10.137 9.79852C10.137 10.5632 9.53268 11.1854 8.78984 11.1854C8.047 11.1854 7.44272 10.5633 7.44272 9.79852C7.44272 9.03376 8.047 8.41164 8.78984 8.41164C9.53268 8.41164 10.137 9.03388 10.137 9.79852ZM2.08925 9.79852C2.08925 9.44821 2.36613 9.16304 2.70652 9.16304H5.71708C5.67705 9.36861 5.65572 9.58105 5.65572 9.79852C5.65572 10.016 5.67705 10.2284 5.71708 10.434H2.70652C2.36613 10.434 2.08925 10.1489 2.08925 9.79852ZM15.7928 38.3026C15.7928 40.6471 13.9402 42.5544 11.6629 42.5544H5.917C3.63975 42.5544 1.78711 40.6471 1.78711 38.3026V37.7071C1.78711 37.4054 2.02551 37.1599 2.3186 37.1599H7.69696C8.19044 37.1599 8.59052 36.7481 8.59052 36.24C8.59052 35.732 8.19044 35.3201 7.69696 35.3201H3.86528L8.78996 15.7699L13.7146 35.3201H11.9139C11.4205 35.3201 11.0204 35.732 11.0204 36.24C11.0204 36.7481 11.4205 37.1599 11.9139 37.1599H15.2613C15.5544 37.1599 15.7928 37.4054 15.7928 37.7071V38.3026ZM13.2828 8.89994C12.8455 9.17322 12.3892 9.4108 11.9186 9.61355C11.894 9.1699 11.7821 8.75018 11.6001 8.3719C11.9585 8.20914 12.3069 8.02295 12.642 7.81345C14.2477 6.80988 16.0893 6.27939 17.9681 6.27939H20.8913V7.55035H17.9681C16.3155 7.55035 14.6953 8.01706 13.2828 8.89994ZM22.6785 7.48007V2.57762C22.6785 2.38064 22.753 2.1953 22.8883 2.05609C23.0237 1.91675 23.2036 1.83997 23.3951 1.83997H24.5357C24.727 1.83997 24.9071 1.91663 25.0423 2.05596C25.1776 2.1953 25.2522 2.38051 25.2522 2.57762V5.04559L22.6785 7.48007ZM28.3598 2.10613L27.0392 3.35526V2.57762C27.0392 2.17089 27.3606 1.83984 27.7557 1.83984H28.7266C28.602 1.91025 28.4825 1.99402 28.3719 2.09472C28.3679 2.09853 28.3638 2.10233 28.3598 2.10613ZM28.4928 11.4011C28.3998 11.2857 28.3036 11.1723 28.2013 11.0631L29.613 9.60975V10.0887C29.613 10.761 29.1238 11.3166 28.4928 11.4011ZM32.6869 9.75595C31.9775 9.75595 31.4003 9.16181 31.4001 8.43139V7.7168C31.9453 6.9854 32.2415 6.0954 32.2415 5.15794C32.2415 4.21999 31.9449 3.3295 31.399 2.59786C31.3992 2.59099 31.4 2.58424 31.4 2.57738C31.4 2.17065 31.7214 1.8396 32.1165 1.8396H33.2572C33.4485 1.8396 33.6285 1.91626 33.7637 2.0556C33.8991 2.19493 33.9737 2.38014 33.9737 2.57725V8.4309C33.9738 9.16156 33.3965 9.75583 32.6869 9.75595ZM37.9577 8.26274C37.7147 8.51308 37.3915 8.65082 37.0477 8.65082C36.3381 8.65082 35.7609 8.05655 35.7609 7.32601C35.7609 7.32589 35.7609 7.32589 35.7609 7.32577V2.5775C35.7609 2.17077 36.0823 1.83972 36.4775 1.83972H37.6181C37.8094 1.83972 37.9894 1.91638 38.1246 2.05572C38.26 2.19506 38.3346 2.38027 38.3346 2.57738V7.32589C38.3346 7.67988 38.2008 8.01252 37.9577 8.26274ZM57.1347 35.3201H47.2854L52.21 15.77L57.1347 35.3201ZM58.9107 9.79852C58.9107 10.1489 58.6339 10.434 58.2935 10.434H55.2829C55.3229 10.2284 55.3443 10.016 55.3443 9.79852C55.3443 9.58105 55.3229 9.36861 55.2829 9.16304H58.2935C58.6339 9.16304 58.9107 9.44821 58.9107 9.79852ZM53.5572 9.79852C53.5572 10.5632 52.9529 11.1854 52.21 11.1854C51.4672 11.1854 50.8629 10.5633 50.8629 9.79852C50.8629 9.03376 51.4672 8.41164 52.21 8.41164C52.9529 8.41164 53.5572 9.03388 53.5572 9.79852ZM59.2129 38.3026C59.2129 40.6471 57.3603 42.5544 55.083 42.5544H49.3371C47.0598 42.5544 45.2072 40.6471 45.2072 38.3026V37.7071C45.2072 37.4054 45.4456 37.1599 45.7387 37.1599H58.6814C58.9745 37.1599 59.2129 37.4054 59.2129 37.7071V38.3026Z" fill="#F7F7F7"/>
</svg>
