<svg width="62" height="62" viewBox="0 0 62 62" fill="none" xmlns="http://www.w3.org/2000/svg">
<path d="M41.7694 16.6333H8.32523C7.7578 16.6333 7.29785 17.0403 7.29785 17.5424C7.29785 18.0446 7.7578 18.4516 8.32523 18.4516H41.7695C42.337 18.4516 42.7969 18.0446 42.7969 17.5424C42.7969 17.0403 42.3368 16.6333 41.7694 16.6333Z" fill="#F7F7F7"/>
<path d="M8.32523 12.1452H25.0472C25.6147 12.1452 26.0746 11.7382 26.0746 11.236C26.0746 10.7339 25.6147 10.3269 25.0472 10.3269H8.32523C7.7578 10.3269 7.29785 10.7339 7.29785 11.236C7.29785 11.7383 7.7578 12.1452 8.32523 12.1452Z" fill="#F7F7F7"/>
<path d="M41.7694 22.2209H8.32523C7.7578 22.2209 7.29785 22.628 7.29785 23.1301C7.29785 23.6322 7.7578 24.0392 8.32523 24.0392H41.7695C42.337 24.0392 42.7969 23.6322 42.7969 23.1301C42.7968 22.628 42.3368 22.2209 41.7694 22.2209Z" fill="#F7F7F7"/>
<path d="M15.9437 55.4834H5.24068C3.48397 55.4834 2.05462 54.2187 2.05462 52.6641V4.63754C2.05462 3.083 3.48397 1.81815 5.24068 1.81815H36.0751C36.1746 1.81815 36.2727 1.82624 36.3697 1.83783V7.50774C36.3697 10.065 38.7207 12.1453 41.6104 12.1453H48.0176C48.0308 12.2312 48.0398 12.318 48.0398 12.4061V27.8876C48.0398 28.3897 48.4998 28.7968 49.0672 28.7968C49.6346 28.7968 50.0946 28.3897 50.0946 27.8876V12.4062C50.0946 11.409 49.6556 10.4714 48.8588 9.76609L39.0583 1.09357C38.2615 0.388423 37.202 0 36.0751 0H5.24068C2.35088 0 0 2.08044 0 4.63754V52.6641C0 55.2212 2.35102 57.3015 5.24068 57.3015H15.9437C16.5111 57.3015 16.9711 56.8945 16.9711 56.3924C16.9711 55.8903 16.5111 55.4834 15.9437 55.4834ZM46.587 10.3271H41.6105C39.8538 10.3271 38.4245 9.06227 38.4245 7.50774V3.104L46.587 10.3271Z" fill="#F7F7F7"/>
<path d="M61.6847 44.5068L52.9798 31.5047C52.3454 30.5567 50.9647 30.2433 49.8929 30.8052L47.7755 31.9153C46.132 32.7769 45.4373 34.5204 46.0016 36.0656C45.2882 36.2943 44.5061 36.2907 43.7859 36.0443C42.1142 35.5789 40.8432 34.6426 38.7441 35.1124C35.1799 35.9154 35.2882 35.8752 34.9658 35.973C32.8788 34.9215 31.6244 34.6087 29.4089 35.367L27.4341 36.0426C26.5198 36.3552 25.5123 36.2811 24.6675 35.8382L24.1285 35.557C24.3915 34.1627 23.6927 32.6912 22.2131 31.9155C22.2131 31.9155 22.2131 31.9155 22.2129 31.9154L20.0957 30.8054C19.0269 30.2452 17.6421 30.5588 17.0089 31.5047L8.30378 44.5069C7.66938 45.4547 8.02238 46.6768 9.09395 47.2384L11.2112 48.3484C11.8519 48.6843 12.556 48.844 13.2516 48.844C14.0273 48.844 14.7921 48.6451 15.446 48.2705L15.8873 48.5009L14.9557 49.6491C13.8455 51.0177 14.1982 52.9207 15.745 53.9032C16.4603 54.3575 17.3589 54.565 18.2882 54.4359C18.4357 55.1986 18.9079 55.9124 19.6726 56.3984C20.3907 56.8546 21.2853 57.0624 22.2162 56.9326C22.3641 57.6947 22.836 58.408 23.6003 58.8935C24.6274 59.5459 25.9044 59.6214 26.9684 59.2192C27.2013 59.7544 27.606 60.2377 28.1705 60.5964C29.6448 61.5327 31.6755 61.2885 32.821 60.0755L35.2967 61.3733C36.9339 62.2318 39.0464 61.7547 40.0171 60.3042C40.2654 59.9334 40.4194 59.5293 40.4757 59.1139L40.4813 59.117C42.1161 59.9737 44.2333 59.494 45.2018 58.0478C45.4822 57.6288 45.6359 57.1744 45.6733 56.719C47.1143 57.0395 48.6846 56.504 49.4799 55.3163C49.7408 54.9266 49.8921 54.5057 49.9419 54.0822C51.4862 54.6185 53.2912 54.1002 54.1633 52.7975C54.6324 52.0969 54.7652 51.2766 54.537 50.4875C54.4064 50.0361 54.1664 49.6263 53.8368 49.2803L55.2014 48.5747C56.3557 48.9941 57.6731 48.927 58.7771 48.3483L60.8941 47.2383C61.9657 46.6771 62.3196 45.4552 61.6847 44.5068ZM12.2585 46.7842L10.1412 45.6741C10.0471 45.6248 10.0159 45.5169 10.0715 45.4336L18.7767 32.4311C18.8328 32.3474 18.9551 32.3203 19.0487 32.3695L21.1658 33.4794C22.1065 33.9727 22.4009 35.0404 21.8536 35.8577L14.9461 46.1754C14.3948 46.9991 13.1893 47.272 12.2585 46.7842ZM16.9432 52.4261C16.3193 52.0298 16.1766 51.2618 16.6248 50.7095L17.9942 49.0216C18.4304 48.4839 19.2997 48.3367 19.9341 48.7397C20.5567 49.1353 20.6995 49.9053 20.2527 50.4563L18.8832 52.1442C18.4362 52.6954 17.5656 52.8214 16.9432 52.4261ZM20.8709 54.9214C20.2482 54.5258 20.1054 53.7556 20.5524 53.2047L21.9217 51.5169C21.9217 51.5169 21.9217 51.5169 21.9217 51.5168C21.9217 51.5168 21.9217 51.5166 21.9218 51.5166L23.433 49.654C23.6496 49.3871 23.9706 49.2106 24.337 49.1575C24.4131 49.1464 24.4893 49.141 24.565 49.141C24.8534 49.141 25.134 49.2204 25.3729 49.3721C25.6744 49.5638 25.8738 49.8477 25.9338 50.1719C25.994 50.4962 25.9079 50.8218 25.6913 51.0886L22.8106 54.6395C22.363 55.1917 21.495 55.3181 20.8709 54.9214ZM24.7985 57.4165C24.1761 57.0211 24.0332 56.2515 24.4794 55.7006C24.4795 55.7003 24.4798 55.7001 24.4799 55.6999L27.3606 52.1491C27.8073 51.5982 28.6781 51.4717 29.3005 51.8672C29.9232 52.2627 30.066 53.0328 29.619 53.5838L28.3391 55.1615C28.3391 55.1615 28.3391 55.1615 28.339 55.1616L26.7383 57.1347C26.2913 57.6857 25.4214 57.8123 24.7985 57.4165ZM29.3688 59.1194C28.7466 58.724 28.6035 57.9547 29.0494 57.4037L30.0081 56.222C30.455 55.6709 31.3256 55.5449 31.948 55.9402C32.5706 56.3356 32.7135 57.1058 32.2665 57.6568L31.3086 58.8374C30.8617 59.3885 29.9912 59.515 29.3688 59.1194ZM52.396 51.8709C52.0051 52.4548 51.1506 52.6484 50.4907 52.3025C49.3733 51.7168 42.1653 47.9379 41.3968 47.535C40.9085 47.2791 40.2785 47.4217 39.9893 47.8537C39.7001 48.2857 39.8612 48.8433 40.3494 49.0992L47.2245 52.7035L47.2246 52.7036C47.8846 53.0496 48.1048 53.8034 47.7124 54.3897C47.3213 54.9738 46.4665 55.1671 45.8068 54.8215C43.264 53.4885 41.1993 52.406 38.9281 51.2153C38.4397 50.9594 37.8098 51.1019 37.5206 51.5339C37.2314 51.9659 37.3925 52.5236 37.8807 52.7794L42.9464 55.4352L42.9475 55.4358C43.6079 55.7828 43.8259 56.5362 43.4343 57.1214C43.0432 57.7055 42.1887 57.8989 41.5286 57.553L38.81 56.1279C38.8097 56.1277 38.8093 56.1276 38.809 56.1274C38.8088 56.1273 38.8085 56.1271 38.8082 56.127L36.8243 55.0868C36.3359 54.8308 35.7059 54.9733 35.4167 55.4055C35.1276 55.8375 35.2886 56.3951 35.7768 56.651L37.7612 57.6913C37.7615 57.6915 37.7617 57.6917 37.762 57.6918C38.4221 58.0378 38.6422 58.7914 38.2498 59.3778C37.8587 59.9619 37.0042 60.1554 36.3441 59.8094L34.0293 58.596C35.0216 57.241 34.6441 55.415 33.1463 54.4636C32.7064 54.1843 32.2166 54.0104 31.7156 53.9357C32.247 52.6783 31.7889 51.2103 30.4986 50.3907C29.7348 49.9053 28.8202 49.7376 27.9571 49.8573C27.8035 49.0625 27.3123 48.3663 26.5712 47.8957C25.1775 47.0106 23.2834 47.1806 22.1135 48.228C21.8757 47.8585 21.5476 47.527 21.1323 47.2633C19.9742 46.5277 18.4705 46.5209 17.3239 47.1404L16.8532 46.8946L23.3145 37.2433L23.6221 37.4038C24.9806 38.1159 26.6385 38.2644 28.1749 37.7386L30.1497 37.063C31.2798 36.6766 31.903 36.6513 33.0208 37.1181C32.2894 37.8452 31.8553 38.7998 31.8553 39.8287V43.8596C31.8553 44.9302 32.8389 45.8018 34.0478 45.8026H34.0508C35.2634 45.8026 36.4037 45.3848 37.2616 44.6262C37.7616 44.1839 38.1307 43.6567 38.352 43.0812C39.6785 43.7763 50.6379 49.5193 51.9085 50.1854C52.2281 50.3529 52.4548 50.6205 52.5469 50.939C52.6389 51.257 52.5853 51.5881 52.396 51.8709ZM59.8473 45.6741L57.73 46.7842C56.7992 47.2719 55.5937 46.9987 55.0426 46.1755L51.805 41.3396C51.5157 40.9076 50.8852 40.765 50.3974 41.0207C49.9093 41.2766 49.748 41.8342 50.0371 42.2662L53.2747 47.1023C53.3357 47.1933 53.4018 47.2798 53.4703 47.3642L52.5702 47.8295C52.3882 47.9249 52.2132 48.0299 52.0459 48.144L38.0888 40.83C37.4051 40.4718 36.5381 40.9084 36.5381 41.6121C36.5273 41.6664 36.6442 42.6009 35.809 43.3397C35.3393 43.7551 34.7148 43.9839 34.0507 43.9839C34.0501 43.9839 34.0496 43.9839 34.049 43.9839C33.9722 43.9839 33.9098 43.9279 33.9098 43.8591V39.8282C33.9098 38.7752 34.7284 37.8868 35.8356 37.6388L39.2478 36.8746C40.486 36.5977 41.1858 37.1828 43.0397 37.738C44.3266 38.1786 45.726 38.1514 46.968 37.682L47.5881 38.6083C47.8774 39.0405 48.5076 39.183 48.9956 38.9272C49.4838 38.6713 49.645 38.1136 49.356 37.6816L48.1347 35.8575C47.5821 35.0321 47.89 33.9685 48.8225 33.4792L50.9398 32.3694C51.0322 32.3207 51.1546 32.3456 51.2119 32.4311L59.9168 45.4333C59.973 45.5172 59.942 45.6245 59.8473 45.6741Z" fill="#F7F7F7"/>
</svg>
