<svg width="64" height="80" viewBox="0 0 64 80" fill="none" xmlns="http://www.w3.org/2000/svg">
<path d="M33.161 52.459H31.021V47.731C31.021 47.3332 30.863 46.9516 30.5817 46.6703C30.3003 46.389 29.9188 46.231 29.521 46.231H9.01C8.61217 46.231 8.23064 46.389 7.94934 46.6703C7.66803 46.9516 7.51 47.3332 7.51 47.731V52.46H5.37C4.97217 52.46 4.59064 52.618 4.30934 52.8993C4.02803 53.1806 3.87 53.5622 3.87 53.96V60.189C3.87 60.5868 4.02803 60.9684 4.30934 61.2497C4.59064 61.531 4.97217 61.689 5.37 61.689H30.16H30.184H33.161C33.5588 61.689 33.9404 61.531 34.2217 61.2497C34.503 60.9684 34.661 60.5868 34.661 60.189V53.959C34.661 53.5612 34.503 53.1796 34.2217 52.8983C33.9404 52.617 33.5588 52.459 33.161 52.459ZM6.87 58.688V55.46H28.66V58.688H6.87ZM28.021 52.459V49.231V52.459ZM10.511 49.231H25.02V52.459H10.511V49.231ZM31.661 58.688V55.459V58.688ZM58.889 49.464L34.94 25.607L38.469 22.077C38.7392 22.0331 38.9915 21.9139 39.197 21.733C39.4778 21.9963 39.8504 22.1395 40.2353 22.1318C40.6202 22.1241 40.9869 21.9663 41.257 21.692L45.376 17.574C45.6572 17.2927 45.8152 16.9112 45.8152 16.5135C45.8152 16.1158 45.6572 15.7343 45.376 15.453L32.676 2.753C32.3895 2.48188 32.01 2.3308 31.6155 2.3308C31.221 2.3308 30.8415 2.48188 30.555 2.753L29.572 3.735C29.565 3.742 29.556 3.744 29.549 3.751C29.542 3.758 29.54 3.767 29.533 3.774L26.433 6.874C26.1518 7.15529 25.9938 7.53675 25.9938 7.9345C25.9938 8.33224 26.1518 8.71371 26.433 8.995L26.573 9.136L12.473 23.236L12.334 23.096C12.0527 22.8148 11.6712 22.6568 11.2735 22.6568C10.8757 22.6568 10.4943 22.8148 10.213 23.096L9.213 24.096L6.1 27.209C5.96061 27.3483 5.85003 27.5137 5.77459 27.6958C5.69915 27.8778 5.66032 28.0729 5.66032 28.27C5.66032 28.4671 5.69915 28.6622 5.77459 28.8442C5.85003 29.0263 5.96061 29.1917 6.1 29.331L18.8 42.031C19.0813 42.3122 19.4627 42.4702 19.8605 42.4702C20.2582 42.4702 20.6397 42.3122 20.921 42.031L25.041 37.912C25.3222 37.6307 25.4802 37.2492 25.4802 36.8515C25.4802 36.4538 25.3222 36.0723 25.041 35.791L24.899 35.649L28.957 31.591L52.908 55.448C53.3442 55.8804 53.8698 56.2118 54.448 56.419L54.473 56.426C55.3766 56.7521 56.3644 56.7604 57.2734 56.4494C58.1823 56.1385 58.9581 55.527 59.4726 54.7157C59.9872 53.9045 60.2098 52.9421 60.1037 51.9873C59.9976 51.0325 59.5691 50.1425 58.889 49.464V49.464ZM10.28 27.271L19.72 36.71L19.859 36.85L18.859 37.85L9.281 28.27L10.28 27.271ZM29.617 7.932L30.617 6.932L40.2 16.51L39.2 17.51L29.758 8.072L29.617 7.932ZM27.7 12.252L31.078 15.633C32.878 17.433 33.702 20.549 29.837 24.467L28.144 26.167L25.892 28.413C25.88 28.425 25.871 28.44 25.86 28.452L21.78 32.528L14.6 25.35L27.7 12.252ZM31.079 29.469L31.821 28.727L54.774 51.6C54.9846 51.8029 55.1116 52.0773 55.1301 52.3691C55.1486 52.6609 55.0572 52.9491 54.874 53.177L31.079 29.469Z" fill="#DDAB61"/>
</svg>
