<svg width="62" height="63" viewBox="0 0 62 63" fill="none" xmlns="http://www.w3.org/2000/svg">
<path d="M57.6739 11.9326C55.4198 9.40987 52.4702 7.5426 49.1847 6.67771C48.6998 6.54747 48.2017 6.83368 48.071 7.31668C47.9405 7.79969 48.2275 8.29695 48.712 8.42707C50.8292 8.99597 52.7629 9.9824 54.4629 11.3621C55.3416 12.1285 54.2852 13.4539 53.3245 12.7744C53.3008 12.7552 53.277 12.7355 53.2523 12.7176C40.7216 3.21705 24.8081 17.7779 33.2232 31.0428C33.2321 31.0571 33.2418 31.0711 33.2514 31.0851C33.508 31.4688 33.4258 32.0255 33.0517 32.3039C32.648 32.6307 32.0001 32.4978 31.7221 32.0646C29.223 28.3654 28.4495 23.7585 29.5995 19.4248C30.0368 17.7771 29.9845 16.0185 29.4483 14.3395L28.449 11.2109C28.328 10.832 28.4429 10.417 28.7418 10.1536L33.4063 6.04345C33.7051 5.77996 34.1324 5.71737 34.4947 5.88373C37.2407 7.12133 39.399 8.48784 42.5827 8.02549C43.2967 7.93101 44.0236 7.88619 44.7457 7.89042C45.2467 7.89392 45.6573 7.49102 45.6605 6.99061C45.6638 6.49033 45.2598 6.08199 44.7579 6.0786C43.9536 6.07389 43.1405 6.12403 42.3435 6.2295C40.9463 6.41446 39.5404 6.20582 38.278 5.62616L35.2549 4.23791C34.2389 3.77145 33.041 3.94724 32.2028 4.68564L30.5926 6.10458L30.1058 5.61915C30.791 4.02431 29.8857 2.05822 28.2249 1.53897L26.8465 1.07843C25.3797 0.5558 23.6292 1.33323 23.035 2.76352C21.7366 0.529825 18.3649 0.809263 17.468 3.2545L16.967 4.61521C16.557 5.69212 16.8263 6.96416 17.6212 7.79341C16.3181 8.00338 15.2453 9.03789 15.053 10.4077L14.8515 11.8432C14.6799 13.0655 15.2564 14.2234 16.2317 14.8554C15.0996 15.3128 14.299 16.4206 14.299 17.7115V19.161C14.299 20.5442 15.2183 21.7174 16.4797 22.1052V23.1827H14.2758C13.1573 23.1827 12.143 23.842 11.6916 24.8621L10.6624 27.188C10.4598 27.6457 10.6678 28.1806 11.1269 28.3824C11.5861 28.5844 12.1224 28.3771 12.325 27.9193L13.3542 25.5933C13.5153 25.2295 13.877 24.9944 14.2758 24.9944H20.5008C20.8997 24.9944 21.2616 25.2295 21.4225 25.5934C22.6579 28.3332 23.3675 30.7827 26.0604 32.5384C29.6409 34.9459 32.1309 38.7765 32.7574 43.0262C32.7283 44.0978 31.1977 44.2535 30.955 43.1882C30.9501 43.1587 30.9456 43.1289 30.9391 43.0999C27.8618 27.7073 6.26443 28.1095 3.75944 43.6056C3.75666 43.6224 3.7546 43.6394 3.75242 43.6564C3.68908 44.1135 3.25895 44.4758 2.79334 44.4376C2.2725 44.416 1.87749 43.8884 1.95596 43.3804C2.54037 38.9586 5.02066 34.9957 8.7607 32.5078C9.11709 32.2707 9.46003 32.004 9.78021 31.715C10.1522 31.3793 10.1808 30.8064 9.84403 30.4355C9.50726 30.0645 8.93266 30.036 8.56065 30.3719C4.00611 33.4348 0.896854 37.594 0.160712 43.0964C-2.00194 59.7326 18.1814 69.0235 29.4529 57.9104C29.8141 57.5633 29.8246 56.9898 29.4763 56.6296C29.1282 56.2695 28.553 56.2589 28.1916 56.6062C18.9687 65.748 2.3316 59.5416 1.83305 46.0553C2.39808 46.2865 3.07113 46.3146 3.65554 46.1317C5.1805 63.6713 30.2371 63.2424 31.1373 45.6379C31.7235 45.801 32.4126 45.7447 32.956 45.497C32.9439 48.3259 32.1623 51.0893 30.6938 53.4929C30.1043 54.5325 31.5799 55.4413 32.2458 54.4354C34.4088 50.9155 35.2325 46.6084 34.5294 42.5299C33.742 37.8711 31.027 33.6838 27.074 31.0349C25.9041 30.2509 24.9893 29.1664 24.4283 27.8985L23.0853 24.8625C22.6338 23.8421 21.6194 23.1828 20.5008 23.1828H18.297V22.1053C19.5585 21.7175 20.4777 20.5443 20.4777 19.1611V17.7116C20.4777 16.6295 19.915 15.6758 19.0661 15.1263C20.0559 14.7265 20.8122 13.8254 20.9706 12.6973L21.1721 11.2618C21.3072 10.2992 20.9783 9.37665 20.3561 8.71931C21.4442 8.54957 22.3965 7.77565 22.7674 6.73787L23.2013 5.55947C23.5786 6.20207 24.1691 6.68133 24.8839 6.92006L26.2625 7.38047C27.158 7.68432 28.1586 7.55166 28.9493 7.02855L29.2286 7.3069L27.5383 8.79603C26.7003 9.53443 26.3781 10.6981 26.7174 11.7608L27.7167 14.8893C28.1479 16.2394 28.1915 17.6476 27.8428 18.9615C26.5628 23.7847 27.418 28.9123 30.1888 33.0379C35.8482 41.7028 48.456 43.3541 56.1598 36.3993C63.2891 30.3743 64.0072 18.7859 57.6739 11.9326ZM17.3883 57.328C10.2498 57.3818 4.57442 50.9128 5.5576 43.8692C7.60799 30.3951 26.735 30.0689 29.1671 43.5135C30.394 50.651 24.6595 57.3945 17.3883 57.328ZM18.6604 19.1611C18.6604 19.5059 18.5216 19.8189 18.297 20.0477V19.6505C18.297 19.1502 17.8902 18.7445 17.3884 18.7445C16.8866 18.7445 16.4798 19.1501 16.4798 19.6505V20.0477C16.2552 19.8189 16.1164 19.5059 16.1164 19.1611V17.7116C16.1164 17.4533 16.1944 17.2129 16.3279 17.0122C16.1852 18.209 17.9134 18.4682 18.1259 17.2759L18.2016 16.737C18.4819 16.9698 18.6607 17.3203 18.6607 17.7116V19.1611H18.6604ZM19.3722 11.0105L19.1707 12.446C19.1228 12.7873 18.9418 13.0781 18.6875 13.2737L18.7428 12.8804C18.8123 12.385 18.4658 11.927 17.9688 11.8576C17.4717 11.7884 17.0125 12.1338 16.943 12.6293L16.8877 13.0235C16.6886 12.7549 16.6047 12.4256 16.6512 12.0943L16.8527 10.6588C16.9036 10.2968 17.1039 9.99158 17.3827 9.79659L17.3114 9.99026C17.1386 10.46 17.3803 10.9804 17.8514 11.1528C18.3101 11.3244 18.8451 11.0889 19.0174 10.6145L19.1862 10.1559C19.3424 10.4013 19.4157 10.7009 19.3722 11.0105ZM21.0614 6.11352C20.9459 6.42751 20.716 6.67843 20.4135 6.82184L20.5511 6.44805C20.724 5.97833 20.4823 5.45787 20.0111 5.28547C19.5401 5.11295 19.018 5.35397 18.8451 5.82381L18.7075 6.1976C18.5698 5.89316 18.5574 5.55355 18.6729 5.23956L19.1739 3.87874C19.4936 2.96383 20.7553 2.76473 21.3454 3.50434L20.7071 3.57538C19.5132 3.75152 19.7129 5.46959 20.9088 5.37608L21.3509 5.32679L21.0614 6.11352ZM26.8395 5.66228L25.4609 5.20187C25.2828 5.14243 25.1234 5.04663 24.991 4.92159L25.3326 4.88353C26.622 4.65773 26.2645 2.8412 24.9658 3.10119C25.2987 2.76582 25.8216 2.64126 26.269 2.7965L27.6476 3.25692C28.1089 3.40503 28.4539 3.83271 28.5075 4.31088C27.7849 4.21737 27.2459 5.05255 27.6273 5.66905C27.3721 5.75036 27.0985 5.74879 26.8395 5.66228ZM36.7446 14.4958C41.1438 10.6167 47.6606 10.4954 52.2019 14.1996C60.8472 21.3123 55.7642 35.2954 44.6538 35.3036C33.7571 35.2929 28.5383 21.8271 36.7446 14.4958ZM60.1853 24.367C59.3536 37.8238 42.7448 43.8743 33.4064 34.15C33.9829 33.9512 34.509 33.5238 34.8229 33.0037C39.9321 38.2082 48.2833 38.5102 53.7529 33.6839C59.3822 28.7239 59.9612 20.1557 55.0873 14.4888C55.6349 14.224 56.1137 13.7269 56.3565 13.1825C59.0806 16.2819 60.44 20.2511 60.1853 24.367Z" fill="#F7F7F7"/>
</svg>
